<svg xmlns="http://www.w3.org/2000/svg" viewBox="0 0 100.6 32.44"><defs><style>.a{fill:#fff;}</style></defs><path class="a" d="M3.47,21.61V8.92C3.47,6.89,3.6,6,2.13,6v-.3h9.53V6c-1.43,0-1.37.53-1.37,2.93V21.84c0,3.93,2.07,5.6,5.23,5.6,3.57,0,5.37-2.47,5.37-5.6V13.18c0-2.73-.87-7.19-4-7.19v-.3h8.72l0,.3c-3.73,0-4.43,4.46-4.43,7.19v8.66c0,4.4-2.93,7.6-8.8,7.6C7.86,29.44,3.47,27,3.47,21.61Z"/><path class="a" d="M40.57,18.61a3.15,3.15,0,0,1-4.4.34,2.94,2.94,0,0,1-1.06-2.07c0-.43-1.07-.2-2.43,1.87v6.62c0,1.84.16,3.17,1.36,3.5v.27H25.71v-.27c1.27-.36,1.3-1.8,1.3-3.5V17.25c0-1.17-.4-1.63-1.76-2.13v-.27l7.43-1.4v4.66C35,14.55,36,14.15,37,13.68a3.16,3.16,0,0,1,3.2.54A3.11,3.11,0,0,1,40.57,18.61Z"/><path class="a" d="M61,21.18c0,6.59-4.4,8.26-8.66,8.26-2.63,0-4.2-.63-5.1-1.47-1.06.7-4.63,1.53-4.63,1V8.09c0-1.13-.33-1.63-1.7-2.13V5.69l7.33-1.4V16c1-1.66,2.63-2.53,5.73-2.53C58.59,13.45,61,17.05,61,21.18Zm-6.7.46c0-3.89-.93-7.19-3.33-7.19-2.23,0-2.73,2.73-2.73,5.3v3.53c0,3.79.77,5.86,2.77,5.86S54.32,27,54.32,21.64Z"/><path class="a" d="M79.47,27c-.47,1.46-2.2,2.43-4.3,2.43,0,0-3.7,0-4-3-.43,1.73-2.13,3-4.49,3-1.27,0-4.16-.57-4.16-3.4,0-3.33,2.69-4,8.62-5.36V18.55c0-3.47-2-5.33-4.26-4.13,0,0-.73.43.4.83a2.18,2.18,0,0,1,1.2,1.27,2.36,2.36,0,0,1-1.3,3.09,2.39,2.39,0,0,1-3.07-1.3,2.42,2.42,0,0,1,.4-2.46,8.07,8.07,0,0,1,2.23-1.7,6.6,6.6,0,0,1,3.14-.7c4.36,0,6.79,2.73,6.79,6.66v5s0,2.4,1.6,2.34c0,0,.83,0,1-.57Zm-8.33-6c-2.73.6-2.7,2.63-2.7,4.2,0,0,0,2.2,1.3,2.2.57,0,1-.47,1.4-1.27Z"/><path class="a" d="M97.55,28.87v.27H89.23v-.27c1.26-.36,1.33-1.83,1.33-3.53V18.65c0-1.9-.7-2.8-2.3-2.8a2.68,2.68,0,0,0-2,1.3v8.22c0,1.84.17,3.17,1.37,3.5v.27H79.33v-.27c1.27-.36,1.3-1.76,1.3-3.5V17.25c0-1.17-.36-1.63-1.73-2.13v-.27l7.39-1.4v3.23c.87-1.76,2.64-3.23,4.43-3.23,2.67,0,5.47,1.07,5.47,5.06v6.83C96.19,27.17,96.39,28.57,97.55,28.87Z"/></svg>