<svg xmlns="http://www.w3.org/2000/svg" viewBox="0 0 103.4 77.11"><defs><style>.a{fill:#fff;}</style></defs><path class="a" d="M66,17.64a10.81,10.81,0,0,0-.75-4.14,11,11,0,0,0-2.15-3.4A2.61,2.61,0,0,0,62.57,8a11.79,11.79,0,0,0-3.43-3,5.47,5.47,0,0,0-4-.76,4.11,4.11,0,0,0-1.25-.57,2.43,2.43,0,0,0-1.08,0c-.4.08-.8.18-1.2.28L50.81,4h-.14c-.67,0-1.36,0-2,0a8.76,8.76,0,0,0-1,.08,9.47,9.47,0,0,0-1.2.26h.08L46,4.44a10.26,10.26,0,0,0-2.53.67c-1.77.9-3.69,2-4.55,3.31-.5.87-1,1.6-1.41,2.32l0,.07a2.36,2.36,0,0,0-.31.32h0a2.16,2.16,0,0,0-.27.44,2.47,2.47,0,0,1,.29-.43l.09.07c-.09.17-.17.35-.25.53a26.82,26.82,0,0,1-1.57,2.48c.3.55.49-.33.74-1.07-.12.39-.21.83-.31,1.28s-.16.91-.23,1.35a.77.77,0,0,0,0,.15c0-.39-.14-.68.15-1-.1-.25-.22-.19-.38.06-.13.87-.45,2.52-.1,2.62a2.32,2.32,0,0,1-.21.48l.29.43a1.46,1.46,0,0,0,0,.2c0-.05.07-.11.11-.17a6.67,6.67,0,0,0,.79,3.06l.28.13c-.07.34-.22-.11-.41-.17.21.76.48,1.3.81,1.41-.12-.41-.25-.81-.35-1.22a.63.63,0,0,0,.26,0c.31.34.58.6.58.74.12.53.21,1,.29,1.46h0c.06.38.12.74.19,1.09l-.1,0c-.22-.49-.6-1.16-.68-1.44a6.67,6.67,0,0,0,.13,1l.32.18c.06.14.06.22,0,.27s0,0,0,0a.24.24,0,0,1-.09.06l0,.05a.43.43,0,0,0,0,.12l.11,0,.28.32s0,0,.06,0a2.65,2.65,0,0,0,.56,1.74h0a6.45,6.45,0,0,0,.83,1.31,2.05,2.05,0,0,0,.84.38l.07.07a1.38,1.38,0,0,0,.6.05.46.46,0,0,0,.27,0,5.08,5.08,0,0,0-.76-1.49l.12.11,0-.09-.08,0a7.45,7.45,0,0,1-.7-1.32c0-.36,0-.56.06-.89,0-.53.73,0,.95.13a5.22,5.22,0,0,0-.42-1.64,10.73,10.73,0,0,0,1.47,1.61l-.2.17c.53.37.39.75,1,1.1h0c0-.37-.25-.61-.47-.93a10.81,10.81,0,0,0,5.52,2.32l3.15.37a11.38,11.38,0,0,0,1.54.05,6.69,6.69,0,0,1-1.62.59,3.28,3.28,0,0,0,.53,1.66,3,3,0,0,0,2.55,1,6.16,6.16,0,0,0,1.28-.17,8.9,8.9,0,0,0,2.08-.12c.17-.14.35-.29.55-.43s.4-.32.62-.48c.43-.3.88-.66,1.32-1,.17-.14.33-.27.48-.41l.31-.08c.16-.24.44-.53.69-.83h0c.27-.27.52-.53.73-.76a11.35,11.35,0,0,0,3.33-4.63c.16-.44.29-.88.43-1.33s.19-.9.27-1.35A12.1,12.1,0,0,0,66,18.8C66,18.29,66,18.06,66,17.64ZM37.82,25.21h0a.76.76,0,0,1,0,.15A1.21,1.21,0,0,0,37.82,25.21Z"/><path class="a" d="M50.1,32.23c-.24,0-.62-.09-.5-.26l-.37.17,1.09.16c-.18-.2-.52-.36-.47-.63l-.47-.09A1.94,1.94,0,0,1,50.1,32.23Z"/><path class="a" d="M50.29,31.78c.21-.18-.08-.3-.46-.39-.42.12.59,0,.26.3C50.19,31.7,50.26,31.72,50.29,31.78Z"/><path class="a" d="M50.09,31.69a1.41,1.41,0,0,1-.25,0s0,0,0,0l.22,0Z"/><path class="a" d="M47.46,31.52a.37.37,0,0,0,.18.21C47.65,31.67,47.57,31.6,47.46,31.52Z"/><path class="a" d="M47.1,30.81c.29.16.44.28.34.45l-.24-.07c-.07.1.11.22.26.33C47.42,31.29,47.92,31.14,47.1,30.81Z"/><path class="a" d="M48.59,30.56l-.18.05,1.07.55C49.44,30.72,49,31,48.59,30.56Z"/><path class="a" d="M36.32,24.14l0-.1-.11-.1Z"/><path class="a" d="M35.94,22.76a8.89,8.89,0,0,0,.13,1l.18.16C36,23.31,36.34,23.42,35.94,22.76Z"/><path class="a" d="M36.36,24a2.25,2.25,0,0,1,.51,1,2.66,2.66,0,0,0,.68,1.18,19.9,19.9,0,0,0-1.11-2.3Z"/><path class="a" d="M3.61,60.07V37.92H9V60.07Z"/><path class="a" d="M14.57,57.83a8.9,8.9,0,0,1-2.44-6.56,8.84,8.84,0,0,1,2.44-6.55,8.57,8.57,0,0,1,6.33-2.45,9.22,9.22,0,0,1,5.46,1.6,7.55,7.55,0,0,1,3,4.56H23.48A2.56,2.56,0,0,0,21,46.85a2.89,2.89,0,0,0-2.56,1.21,5.62,5.62,0,0,0-.83,3.21,5.61,5.61,0,0,0,.83,3.2,2.79,2.79,0,0,0,2.45,1.21,3.06,3.06,0,0,0,1.58-.34,3,3,0,0,0,1-1.24h5.84a7.8,7.8,0,0,1-3,4.52,8.91,8.91,0,0,1-5.42,1.67A8.54,8.54,0,0,1,14.57,57.83Z"/><path class="a" d="M33.44,57.8a8.58,8.58,0,0,1-2.67-6.57,8.42,8.42,0,0,1,2.65-6.51A9.31,9.31,0,0,1,40,42.27a9.27,9.27,0,0,1,6.55,2.45,8.48,8.48,0,0,1,2.63,6.51,8.65,8.65,0,0,1-2.62,6.57A9.09,9.09,0,0,1,40,60.29,9.25,9.25,0,0,1,33.44,57.8Zm9.16-3.25a4.58,4.58,0,0,0,1.07-3.28A4.46,4.46,0,0,0,42.57,48,3.55,3.55,0,0,0,40,46.88,3.48,3.48,0,0,0,37.35,48a4.5,4.5,0,0,0-1.09,3.27,4.47,4.47,0,0,0,1.12,3.28A3.61,3.61,0,0,0,40,55.68,3.45,3.45,0,0,0,42.6,54.55Z"/><path class="a" d="M57.71,42.46v2.59A5.77,5.77,0,0,1,63,42.27a6.42,6.42,0,0,1,4.91,2,7.77,7.77,0,0,1,1.88,5.49V60.07H64.46V50.51a3.64,3.64,0,0,0-.9-2.64,3.76,3.76,0,0,0-5,0,3.64,3.64,0,0,0-.9,2.64v9.56H52.32V42.46Z"/><path class="a" d="M79,40.48a3.06,3.06,0,0,1-2.24.91,3,3,0,0,1-2.24-.91,3.22,3.22,0,0,1,0-4.51,3,3,0,0,1,2.24-.92,3.12,3.12,0,0,1,3.15,3.17A3.12,3.12,0,0,1,79,40.48ZM74.08,60.07V42.46h5.4V60.07Z"/><path class="a" d="M85.05,57.83a8.9,8.9,0,0,1-2.45-6.56,8.85,8.85,0,0,1,2.45-6.55,8.55,8.55,0,0,1,6.32-2.45,9.2,9.2,0,0,1,5.46,1.6,7.55,7.55,0,0,1,3,4.56H94a2.57,2.57,0,0,0-2.48-1.58,2.86,2.86,0,0,0-2.55,1.21,5.54,5.54,0,0,0-.84,3.21,5.53,5.53,0,0,0,.84,3.2,2.76,2.76,0,0,0,2.44,1.21A3.06,3.06,0,0,0,93,55.34a3,3,0,0,0,1-1.24h5.83a7.83,7.83,0,0,1-3,4.52,9,9,0,0,1-5.43,1.67A8.51,8.51,0,0,1,85.05,57.83Z"/></svg>