<svg xmlns="http://www.w3.org/2000/svg" viewBox="0 0 431 368"><defs><style>.a{fill:#fff;}</style></defs><path class="a" d="M57.06,180.38H27.16V8.82h72.3c36.77,0,66.67,13,66.67,45.34,0,32.11-31.87,44.85-56.62,45.34V100c23.77,1.47,38.23,10.29,44.85,29.17l8.58,25c3.43,10.3,6.86,18.63,14,26.23H143.82c-5.14-7.35-7.84-15.44-10.54-23.53l-8.57-25.49c-7.11-21.57-16.18-30.63-39.46-30.63H57.06Zm0-82.35H90.39c25.74,0,44.36-12,44.36-43.13,0-29.66-17.15-43.38-43.62-43.38H57.06Z"/><path class="a" d="M177.22,120.58c0-35.54,27.94-62.74,62.25-62.74C274,57.84,302,85,302,120.58c0,35.29-27.94,62.25-62.5,62.25C205.16,182.83,177.22,155.87,177.22,120.58Zm30.15,0c0,43.62,11.51,60,32.1,60s32.11-16.42,32.11-60c0-44.12-11.52-60.54-32.11-60.54S207.37,76.46,207.37,120.58Z"/><path class="a" d="M17,249.36c0-33.94,26.68-59.91,59.45-59.91,33,0,59.68,26,59.68,59.91,0,33.7-26.68,59.45-59.68,59.45A58.94,58.94,0,0,1,17,249.36Zm28.79,0c0,41.66,11,57.34,30.66,57.34s30.66-15.68,30.66-57.34c0-42.13-11-57.81-30.66-57.81S45.79,207.23,45.79,249.36Z"/><path class="a" d="M224.61,361.18h-1l-76-170.09V358.73H145V187.17h32.59L237.84,321l53.43-133.82H321.9V358.73H292.5V191.09Z"/><path class="a" d="M383.66,175.75v11.14H327.47V186l22.86-23c12.71-12.6,18.17-22.3,18.17-34.35,0-11.7-5.35-19-16.84-19s-19.84,8.7-19.84,19.29c0,6.91,3.9,11.71,8.58,13.27l-.44.89c-4.91-1.45-9.26-6.8-9.26-14.16,0-12,9.7-21.3,25.09-21.3,14.72,0,26.53,7.59,26.53,21.52,0,16.17-16.83,27-43.92,46.5Z"/><path class="a" d="M405.4,186.89V118.55a54.68,54.68,0,0,1-16.73,17.06l-.55-1c9.59-6.24,16.94-15.94,22-26.42H419v78.71Z"/></svg>