<svg xmlns="http://www.w3.org/2000/svg" viewBox="0 0 116.43 61.2"><defs><style>.a{fill:#fff;}</style></defs><path class="a" d="M6.22,41.69A1.79,1.79,0,0,1,6,40.56a10.07,10.07,0,0,1,.31-1.76c.16-.65.37-1.34.62-2.06s.51-1.4.76-2.05.48-1.24.7-1.76l.46-1.14c.11-.23.25-.57.43-1s.38-.91.6-1.42.43-1.05.67-1.62.46-1.11.67-1.63l.59-1.42.44-1q.53-.17.69,0a.87.87,0,0,1,.09.68,6.1,6.1,0,0,1-.33,1.14c-.17.45-.38.93-.6,1.44l-.71,1.58c-.25.53-.47,1-.66,1.52a9.76,9.76,0,0,0-.45,1.31,2.25,2.25,0,0,0-.09,1,5.43,5.43,0,0,0,1,0c.36,0,.74-.08,1.13-.15s.77-.13,1.15-.21l1-.19a11.78,11.78,0,0,0,3.44-1,7.08,7.08,0,0,0,2.15-1.69,10.74,10.74,0,0,0,1.5-2.47c.42-1,.91-2.08,1.46-3.36.14-.27.27-.38.38-.34a.52.52,0,0,1,.27.33,3.27,3.27,0,0,1,.16.6,1.25,1.25,0,0,1,0,.48s-.07.15-.15.3-.16.33-.26.51l-.26.5-.14.29c0,.07-.07.17-.12.32s-.1.31-.16.49l-.17.48c0,.15-.08.26-.09.32a.86.86,0,0,1,.32.22.75.75,0,0,1,.22.32,1.27,1.27,0,0,1-.26.91A8.75,8.75,0,0,1,22,30L21,31.11a3,3,0,0,0-.62,1,46.68,46.68,0,0,0-1.67,4.72,32.63,32.63,0,0,0-1,4.89,1.13,1.13,0,0,1-.21.24.24.24,0,0,1-.31,0,7.08,7.08,0,0,1,.08-1.43c.09-.6.21-1.26.35-2s.3-1.45.47-2.19.33-1.42.48-2,.28-1.14.37-1.55a3,3,0,0,0,.12-.68,4.68,4.68,0,0,0-1.28,0c-.52,0-1.08.11-1.7.21s-1.25.23-1.91.37-1.31.3-1.93.46l-1.74.47-1.32.39a11,11,0,0,0-.66,2c-.17.71-.35,1.43-.53,2.16s-.38,1.42-.6,2.09A7.21,7.21,0,0,1,6.5,42a.65.65,0,0,1-.15-.11C6.28,41.77,6.23,41.73,6.22,41.69Z"/><path class="a" d="M23,41.69a1.92,1.92,0,0,1-1.24-1.2,3.17,3.17,0,0,1,0-1.78,7.5,7.5,0,0,1,.9-2,12.55,12.55,0,0,1,1.42-1.92,10.7,10.7,0,0,1,1.57-1.48A2.93,2.93,0,0,1,27,32.6a4.21,4.21,0,0,1,2.3.2,2.17,2.17,0,0,1,1.15,1.12,3.18,3.18,0,0,1,.16,1.71,6.66,6.66,0,0,1-.62,2,9.85,9.85,0,0,1-1.26,1.91,8.26,8.26,0,0,1-1.7,1.55,5.39,5.39,0,0,1-2,.83A3.73,3.73,0,0,1,23,41.69Zm-.26-1.34a1,1,0,0,0,.8.84A2.62,2.62,0,0,0,25,40.88a8.23,8.23,0,0,0,1.72-1.14,13.86,13.86,0,0,0,1.64-1.61,11.73,11.73,0,0,0,1.23-1.76,3.26,3.26,0,0,0,.47-1.55,1.12,1.12,0,0,0-.64-1,3.65,3.65,0,0,0-2.09-.13c-.22.21-.51.46-.85.75s-.71.61-1.08,1-.73.73-1.1,1.13a9,9,0,0,0-.94,1.24,4.68,4.68,0,0,0-.58,1.3A2.49,2.49,0,0,0,22.76,40.35Z"/><path class="a" d="M44.7,40.71a2.57,2.57,0,0,1,0-.78,3.83,3.83,0,0,1,.23-.75c.1-.25.2-.47.3-.68s.19-.44.39-.86.41-.85.64-1.31.44-.89.65-1.29l.42-.84v-.52c-.16-.08-.48,0-1,.32a16.66,16.66,0,0,0-1.7,1.21c-.65.51-1.33,1.08-2.05,1.71s-1.41,1.23-2,1.81S39.42,39.82,39,40.26s-.78.75-.9.89c-.35.11-.57,0-.68-.22a2.42,2.42,0,0,1-.08-1.09,11.79,11.79,0,0,1,.28-1.56c.15-.58.29-1.12.44-1.63s.29-.95.4-1.31a2.6,2.6,0,0,0,.16-.59,1.2,1.2,0,0,0-1,.12,4.4,4.4,0,0,0-1.06.83A13.8,13.8,0,0,0,35.42,37l-1.08,1.49-1,1.42a7.93,7.93,0,0,1-.95,1.1,1.81,1.81,0,0,1-.84.5.67.67,0,0,1-.67-.36s0,0,0-.12a.28.28,0,0,1,0-.14l.37-.74c.16-.34.35-.72.55-1.15l.66-1.33c.24-.47.46-.91.68-1.33l.56-1.12c.17-.33.3-.58.39-.73s.19-.36.33-.61l.43-.7q.21-.34.54-.84h.57a1.4,1.4,0,0,1-.05,1,5.52,5.52,0,0,1-.51.92,7.21,7.21,0,0,0-.49.89,1.12,1.12,0,0,0,0,.93C36.21,34.9,37.26,34,38,33.45a5.6,5.6,0,0,1,1.55-1c.29-.08.44,0,.42.35a7.36,7.36,0,0,1-.2,1.28c-.12.53-.24,1.14-.35,1.83a6.41,6.41,0,0,0,0,2h.28c.1-.07.26-.18.48-.36l.72-.56.73-.57.48-.36.76-.59,1-.76.93-.69c.27-.2.45-.32.53-.37l.41-.29.71-.49.75-.48.52-.34a1.06,1.06,0,0,1,.66-.22.76.76,0,0,1,.5.23.86.86,0,0,1,.25.54,1.78,1.78,0,0,1-.09.77l-1.12,2.08q-.55,1-1,2a14.47,14.47,0,0,0-.76,2.12A10.06,10.06,0,0,0,45.77,42a.21.21,0,0,1-.24,0,1.05,1.05,0,0,1-.25-.18,2.61,2.61,0,0,1-.29-.36A1.21,1.21,0,0,1,44.7,40.71Z"/><path class="a" d="M50.78,41.69A2,2,0,0,1,49.71,41a2.55,2.55,0,0,1-.49-1.07,4,4,0,0,1,0-1.24,6.06,6.06,0,0,1,.27-1.24l1.6-1.74c.59-.65,1.21-1.3,1.87-1.93S54.29,32.54,55,32a9.32,9.32,0,0,1,2.19-1.24.55.55,0,0,1,.6,0,.93.93,0,0,1,.32.55,3.3,3.3,0,0,1,.08.87,7.46,7.46,0,0,1-.08,1,5.67,5.67,0,0,1-.19.85,1.49,1.49,0,0,1-.24.52,4,4,0,0,1-1.09.78l-1.81,1-2,1.1a10.64,10.64,0,0,0-1.63,1.13,2.09,2.09,0,0,0-.75,1.09c-.08.37.14.7.66,1a7.49,7.49,0,0,0,2-.09,23.64,23.64,0,0,0,2.34-.47c.79-.19,1.56-.4,2.3-.61s1.35-.38,1.82-.51l.28.26a4.49,4.49,0,0,1-1.7,1.25,15.09,15.09,0,0,1-2.55.94,15.29,15.29,0,0,1-2.67.47A5.11,5.11,0,0,1,50.78,41.69Zm5.65-9s-.13,0-.35.2-.5.34-.82.59l-1,.8c-.37.29-.71.57-1,.82s-.57.47-.77.65-.29.27-.26.27a2.12,2.12,0,0,0,1-.11,6.72,6.72,0,0,0,1.25-.51,9.66,9.66,0,0,0,1.24-.74,5.33,5.33,0,0,0,.94-.81,1.33,1.33,0,0,0,.35-.71Q57,32.8,56.43,32.67Z"/><path class="a" d="M72.44,40.71a2.57,2.57,0,0,1,0-.78,3.83,3.83,0,0,1,.23-.75l.3-.68c.06-.15.19-.44.39-.86s.41-.85.64-1.31.44-.89.65-1.29l.42-.84v-.52c-.15-.08-.48,0-1,.32a17.85,17.85,0,0,0-1.7,1.21c-.64.51-1.33,1.08-2,1.71S69,38.15,68.35,38.73s-1.19,1.09-1.66,1.53-.77.75-.9.89c-.35.11-.57,0-.67-.22A2.4,2.4,0,0,1,65,39.84a10.47,10.47,0,0,1,.29-1.56c.14-.58.28-1.12.43-1.63s.29-.95.41-1.31a2.89,2.89,0,0,0,.15-.59,1.18,1.18,0,0,0-1,.12,4.44,4.44,0,0,0-1.07.83A12.41,12.41,0,0,0,63.17,37l-1.09,1.49-1,1.42a7.93,7.93,0,0,1-.95,1.1,1.78,1.78,0,0,1-.83.5.68.68,0,0,1-.68-.36.22.22,0,0,1,0-.12.46.46,0,0,1,0-.14l.37-.74c.16-.34.35-.72.55-1.15l.66-1.33.68-1.33.57-1.12a7,7,0,0,1,.39-.73,5.73,5.73,0,0,1,.33-.61c.14-.24.28-.48.42-.7s.32-.51.55-.84h.56a1.4,1.4,0,0,1,0,1,7.46,7.46,0,0,1-.51.92,6.19,6.19,0,0,0-.5.89,1.16,1.16,0,0,0,0,.93C64,34.9,65,34,65.73,33.45a5.6,5.6,0,0,1,1.55-1c.3-.08.44,0,.42.35a7.36,7.36,0,0,1-.2,1.28c-.12.53-.23,1.14-.35,1.83a6.41,6.41,0,0,0,0,2h.29c.09-.07.25-.18.47-.36l.72-.56.73-.57.49-.36.75-.59,1-.76.92-.69c.27-.2.45-.32.53-.37l.41-.29.71-.49.75-.48.52-.34a1.06,1.06,0,0,1,.66-.22.8.8,0,0,1,.51.23.9.9,0,0,1,.24.54,1.64,1.64,0,0,1-.09.77l-1.12,2.08q-.56,1-1,2a13.35,13.35,0,0,0-.75,2.12A9.07,9.07,0,0,0,73.52,42a.23.23,0,0,1-.25,0,1.05,1.05,0,0,1-.25-.18,2.68,2.68,0,0,1-.28-.36A1.16,1.16,0,0,1,72.44,40.71Z"/><path class="a" d="M77.86,41.41A1.89,1.89,0,0,1,77.24,40a6.4,6.4,0,0,1,.26-2.08,14.36,14.36,0,0,1,.94-2.43A18,18,0,0,1,79.9,33.1a14.86,14.86,0,0,1,1.79-2.05,7.11,7.11,0,0,1,1.94-1.35,3.47,3.47,0,0,1,1.89-.31,3,3,0,0,1,2.25,2.27,3.64,3.64,0,0,1,0,1.23,6.6,6.6,0,0,1-.38,1.28c-.17.43-.34.87-.5,1.31a10.51,10.51,0,0,0-.41,1.35,3.81,3.81,0,0,0,0,1.39,1.08,1.08,0,0,0,.8,1.06,3.36,3.36,0,0,0,1.64-.09,9.49,9.49,0,0,0,2-.83c.71-.38,1.37-.75,2-1.13s1.32-.85,2.12-1.42c.44-.09.69-.07.74.08s0,.37-.26.66a6.07,6.07,0,0,1-1,1,12.88,12.88,0,0,1-1.56,1.07,17.23,17.23,0,0,1-1.87,1,8.88,8.88,0,0,1-1.94.58,4.81,4.81,0,0,1-1.78,0,2.33,2.33,0,0,1-1.38-.84,1.9,1.9,0,0,1-.39-.56,1.33,1.33,0,0,0-.42-.5c-.23.22-.52.51-.85.86s-.69.71-1.07,1.07a14.9,14.9,0,0,1-1.23,1,5.11,5.11,0,0,1-1.34.71A3.28,3.28,0,0,1,79.2,42,2.49,2.49,0,0,1,77.86,41.41Zm.26-.8a.84.84,0,0,0,.95.69,3.61,3.61,0,0,0,1.7-.72,11.45,11.45,0,0,0,2-1.8,16.36,16.36,0,0,0,1.87-2.56,12.27,12.27,0,0,0,1.26-3,7.5,7.5,0,0,0,.23-3.07,1.27,1.27,0,0,0-1.42,0,7.36,7.36,0,0,0-1.81,1.35A16.59,16.59,0,0,0,81,33.72a22.92,22.92,0,0,0-1.64,2.6,14.19,14.19,0,0,0-1.08,2.47A3.41,3.41,0,0,0,78.12,40.61Z"/><path class="a" d="M102.25,41.41a3.63,3.63,0,0,1-1.3-1.52,8.83,8.83,0,0,1-.59-2h-.26a23.77,23.77,0,0,1-3.32,2.34,8,8,0,0,1-2.37.95,2.17,2.17,0,0,1-1.52-.15,1.48,1.48,0,0,1-.69-1,2.87,2.87,0,0,1,.06-1.47A6.17,6.17,0,0,1,93,36.93a7.72,7.72,0,0,1,1.34-1.64A7.43,7.43,0,0,1,96.24,34a7.19,7.19,0,0,1,2.38-.62,7.65,7.65,0,0,1,2.83.29l.26-.28L104.9,27a.79.79,0,0,1,.75.56,2.16,2.16,0,0,1,0,1,4.78,4.78,0,0,1-.38,1.1c-.16.36-.28.61-.36.77s-.14.28-.27.54-.3.59-.48,1-.37.76-.58,1.17L103,34.31l-.49,1c-.14.27-.23.45-.26.53a3.94,3.94,0,0,0-.39,1.86c0,.65.06,1.28.11,1.87a1.3,1.3,0,0,0,.38.7,5.68,5.68,0,0,0,.6.5l.64.43a2.18,2.18,0,0,1,.53.52.39.39,0,0,1-.38.32,1.39,1.39,0,0,1-.59-.1,3.39,3.39,0,0,1-.57-.29Zm-8.81-1.06c.06.27.3.34.72.23a5.69,5.69,0,0,0,1.47-.69c.57-.36,1.17-.79,1.81-1.29a22.54,22.54,0,0,0,1.73-1.51,9.81,9.81,0,0,0,1.2-1.4c.29-.42.38-.74.27-.94a3.28,3.28,0,0,0-1.63-.4,5.25,5.25,0,0,0-1.78.31,7.51,7.51,0,0,0-1.7.9,5.82,5.82,0,0,0-1.37,1.34,4.68,4.68,0,0,0-.78,1.64A3.29,3.29,0,0,0,93.44,40.35Z"/><path class="a" d="M105.94,41.69a2.07,2.07,0,0,1-1.08-.72,2.66,2.66,0,0,1-.48-1.07,3.94,3.94,0,0,1,0-1.24,7.76,7.76,0,0,1,.27-1.24c.48-.51,1-1.09,1.6-1.74s1.22-1.3,1.88-1.93A24.67,24.67,0,0,1,110.16,32a9.07,9.07,0,0,1,2.18-1.24.55.55,0,0,1,.6,0,.93.93,0,0,1,.32.55,3.28,3.28,0,0,1,.09.87,7.43,7.43,0,0,1-.09,1,4.65,4.65,0,0,1-.19.85,1.52,1.52,0,0,1-.23.52,4.3,4.3,0,0,1-1.1.78l-1.81,1-2,1.1a9.73,9.73,0,0,0-1.63,1.13,2.12,2.12,0,0,0-.76,1.09c-.08.37.14.7.66,1a7.46,7.46,0,0,0,2-.09,23.64,23.64,0,0,0,2.34-.47c.8-.19,1.56-.4,2.3-.61s1.35-.38,1.82-.51l.29.26a4.66,4.66,0,0,1-1.7,1.25,14.88,14.88,0,0,1-2.56.94,15.29,15.29,0,0,1-2.67.47A5.06,5.06,0,0,1,105.94,41.69Zm5.64-9s-.13,0-.35.2-.49.34-.81.59-.67.51-1,.8l-1,.82c-.31.25-.56.47-.77.65s-.29.27-.26.27a2.12,2.12,0,0,0,1-.11,6.72,6.72,0,0,0,1.25-.51,9,9,0,0,0,1.24-.74,5.33,5.33,0,0,0,.94-.81,1.26,1.26,0,0,0,.35-.71Q112.1,32.8,111.58,32.67Z"/><path class="a" d="M51.66,24.31a.66.66,0,0,1,0-.19.84.84,0,0,1,0-.21c0-.12.1-.34.19-.66l.29-1,.29-1c.09-.31.16-.52.19-.65s.1-.35.15-.56a1.41,1.41,0,0,0,0-.61,1.92,1.92,0,0,0-.64.06,7,7,0,0,1-.74.16,2,2,0,0,1-.69,0,.6.6,0,0,1-.45-.4,1,1,0,0,1,.62-.56,4,4,0,0,1,.89-.18,8.19,8.19,0,0,0,.91-.16,1.1,1.1,0,0,0,.7-.46c.1-.3.22-.66.37-1.09s.29-.87.45-1.34.34-.93.52-1.39a9.92,9.92,0,0,1,.6-1.22.24.24,0,0,1,.3,0,.64.64,0,0,1,.18.3,2,2,0,0,1,.08.41,1.14,1.14,0,0,1,0,.27,4.1,4.1,0,0,1-.35.95c-.17.34-.32.68-.46,1a7.37,7.37,0,0,0-.35,1,2,2,0,0,0,0,1h3.68s0,0,.09.11l.12.18c0,.16,0,.27-.19.33a3.9,3.9,0,0,1-.74.11c-.31,0-.66,0-1.05,0a10,10,0,0,0-1.13.09,3.82,3.82,0,0,0-1,.25,1.05,1.05,0,0,0-.59.54c-.29.77-.57,1.54-.82,2.31s-.49,1.55-.72,2.34a1.27,1.27,0,0,1-.14.16.79.79,0,0,1-.22.19.35.35,0,0,1-.23.06C51.77,24.5,51.71,24.43,51.66,24.31Z"/><path class="a" d="M56.92,24.1a.22.22,0,0,1,0-.09.28.28,0,0,1,0-.1c0-.09.13-.25.23-.47l.35-.7c.12-.25.23-.48.35-.7l.24-.46.18-.29.36-.59.46-.78c.17-.29.33-.57.5-.84s.32-.53.46-.77l.35-.6.8-1.34q.45-.78.93-1.56c.32-.53.64-1,.95-1.53A14.55,14.55,0,0,1,64,12.07a2.9,2.9,0,0,1,.67-.64c.18-.1.31,0,.38.21v.55c-.08.12-.19.29-.33.48l-.42.64c-.14.22-.28.44-.42.64l-.31.48L63,15.2l-.78,1.2-.87,1.4c-.3.49-.57.94-.81,1.36s-.43.79-.57,1.09-.2.5-.16.58a3.28,3.28,0,0,0,.88-.44c.31-.21.63-.44,1-.68s.64-.47,1-.69a5.91,5.91,0,0,1,.89-.53,1.38,1.38,0,0,1,.72.31,1.42,1.42,0,0,1,.45.65c0,.11,0,.3,0,.58s0,.57,0,.88,0,.6,0,.88,0,.46,0,.56a1.29,1.29,0,0,0,.17.47q.15.29.33.57c.12.19.23.35.33.49s.14.21.13.22a1,1,0,0,1-.65,0,1.42,1.42,0,0,1-.54-.36,2.18,2.18,0,0,1-.38-.57,1.89,1.89,0,0,1-.18-.62c0-.11,0-.3,0-.58s-.05-.57-.06-.88,0-.6,0-.87,0-.47,0-.57l-.39-.21c-.07,0-.19,0-.35.09a5.11,5.11,0,0,0-.58.38c-.22.16-.44.34-.68.55l-.68.58-.54.48-.28.26-.49.48L59,23l-.75.76c-.23.24-.4.41-.49.52a2.42,2.42,0,0,1-.45,0A.4.4,0,0,1,56.92,24.1Z"/><path class="a" d="M67,24.31a1.6,1.6,0,0,1-.78-.53,1.84,1.84,0,0,1-.35-.78,2.69,2.69,0,0,1,0-.9,5.34,5.34,0,0,1,.2-.9c.34-.36.73-.78,1.16-1.26S68,19,68.51,18.55A16.38,16.38,0,0,1,70,17.27a6.08,6.08,0,0,1,1.59-.9.39.39,0,0,1,.43,0,.66.66,0,0,1,.23.4,2,2,0,0,1,.06.63,4.17,4.17,0,0,1-.06.71,4.32,4.32,0,0,1-.13.61,1.4,1.4,0,0,1-.17.38,3.25,3.25,0,0,1-.8.57l-1.31.71c-.48.26-1,.52-1.44.8a7.2,7.2,0,0,0-1.19.81,1.52,1.52,0,0,0-.54.8q-.09.39.48.72a5.86,5.86,0,0,0,1.41-.06c.55-.09,1.12-.2,1.7-.35s1.13-.29,1.67-.44l1.32-.37.2.19a3.39,3.39,0,0,1-1.23.91,10.37,10.37,0,0,1-1.85.67,10.58,10.58,0,0,1-1.94.35A3.92,3.92,0,0,1,67,24.31Zm4.1-6.55s-.1,0-.26.14-.36.25-.59.43l-.76.58-.73.6c-.23.18-.41.34-.56.47s-.21.19-.19.19a1.56,1.56,0,0,0,.71-.07,5.62,5.62,0,0,0,.91-.37,6.7,6.7,0,0,0,.9-.54,3.79,3.79,0,0,0,.68-.59,1,1,0,0,0,.26-.52C71.42,17.93,71.3,17.83,71.05,17.76Z"/><path class="a" d="M83.27,49.62a2.43,2.43,0,0,1-1,.16A1.65,1.65,0,0,1,80.51,48a1.78,1.78,0,0,1,2-1.82,2.59,2.59,0,0,1,.81.13l-.17.79a1.36,1.36,0,0,0-.59-.1.88.88,0,0,0-.92.95.89.89,0,0,0,.94,1,1.72,1.72,0,0,0,.61-.1Z"/><path class="a" d="M85.23,44.74H86.3v1.95h0a1.19,1.19,0,0,1,.42-.35,1.24,1.24,0,0,1,.55-.13c.68,0,1.2.46,1.2,1.49v2H87.42V47.82c0-.44-.16-.75-.56-.75a.56.56,0,0,0-.53.37.63.63,0,0,0,0,.24v2H85.23Z"/><path class="a" d="M92.65,49.71l-.06-.35h0a1.23,1.23,0,0,1-1,.42,1,1,0,0,1-1.11-1.05c0-.89.8-1.31,2-1.31v0c0-.19-.1-.45-.62-.45a2,2,0,0,0-1,.26l-.19-.68a2.7,2.7,0,0,1,1.33-.3,1.33,1.33,0,0,1,1.5,1.47v1.19a6.08,6.08,0,0,0,0,.84Zm-.12-1.62c-.56,0-1,.13-1,.54A.39.39,0,0,0,92,49a.6.6,0,0,0,.56-.4,1,1,0,0,0,0-.18Z"/><path class="a" d="M95.77,47.38c0-.43,0-.8,0-1.1h.92l0,.47h0a1.25,1.25,0,0,1,1.06-.54c.7,0,1.22.46,1.22,1.47v2H98v-1.9c0-.44-.16-.74-.54-.74a.57.57,0,0,0-.54.4.65.65,0,0,0,0,.26v2H95.77Z"/><path class="a" d="M101.25,47.38c0-.43,0-.8,0-1.1h.92l0,.47h0a1.25,1.25,0,0,1,1.06-.54c.7,0,1.23.46,1.23,1.47v2h-1.07v-1.9c0-.44-.15-.74-.54-.74a.57.57,0,0,0-.54.4.89.89,0,0,0,0,.26v2h-1.06Z"/><path class="a" d="M107.54,48.34c0,.44.47.65,1,.65a3,3,0,0,0,.94-.14l.14.72a3.39,3.39,0,0,1-1.24.21A1.65,1.65,0,0,1,106.52,48a1.71,1.71,0,0,1,1.73-1.82,1.52,1.52,0,0,1,1.53,1.7,3.39,3.39,0,0,1,0,.43Zm1.25-.73a.62.62,0,0,0-.6-.7.7.7,0,0,0-.66.7Z"/><path class="a" d="M111.79,44.74h1.06v5h-1.06Z"/></svg>