<svg xmlns="http://www.w3.org/2000/svg" viewBox="0 0 111.32 32.92"><defs><style>.a{fill:#fff;}</style></defs><path class="a" d="M7.91,7.37V9.68A5.15,5.15,0,0,1,12.67,7.2,5.72,5.72,0,0,1,17.05,9a7,7,0,0,1,1.67,4.9v9.18H13.94V14.55a3.22,3.22,0,0,0-.81-2.35,2.93,2.93,0,0,0-2.21-.83,3,3,0,0,0-2.21.83,3.26,3.26,0,0,0-.8,2.35v8.53H3.1V7.37Z"/><path class="a" d="M23.45,21a8.19,8.19,0,0,1-2.08-5.78,8.2,8.2,0,0,1,2.08-5.78A6.66,6.66,0,0,1,28.53,7.2a5.33,5.33,0,0,1,4.61,2.23V7.37H38V23.08H33.14V20.8a5.46,5.46,0,0,1-4.68,2.48A6.59,6.59,0,0,1,23.45,21ZM32.1,18.1a3.84,3.84,0,0,0,1-2.87,3.8,3.8,0,0,0-1-2.86,3.36,3.36,0,0,0-4.79,0,3.86,3.86,0,0,0-1,2.87,3.79,3.79,0,0,0,1,2.86,3.33,3.33,0,0,0,2.39,1A3.38,3.38,0,0,0,32.1,18.1Z"/><path class="a" d="M48.57,19h1.71v4.08H47.83a6.35,6.35,0,0,1-4.09-1.17c-1-.78-1.45-2.11-1.45-4V11.37H40.82v-4h1.47V3.54H47.1V7.37h3.16v4H47.1V17.9C47.1,18.63,47.59,19,48.57,19Z"/><path class="a" d="M64,7.37h4.81V23.08H64V20.77a5.15,5.15,0,0,1-4.76,2.48,5.72,5.72,0,0,1-4.38-1.8,6.9,6.9,0,0,1-1.67-4.9V7.37h4.78V15.9a3.25,3.25,0,0,0,.8,2.35,2.93,2.93,0,0,0,2.21.83,2.9,2.9,0,0,0,2.21-.83A3.21,3.21,0,0,0,64,15.9Z"/><path class="a" d="M77.54,7.37V10.3Q79.22,7.2,82,7.2v4.9H80.86a3.46,3.46,0,0,0-2.49.79,3.69,3.69,0,0,0-.83,2.76v7.43H72.72V7.37Z"/><path class="a" d="M85.31,21a8.19,8.19,0,0,1-2.09-5.78,8.21,8.21,0,0,1,2.09-5.78A6.65,6.65,0,0,1,90.39,7.2,5.31,5.31,0,0,1,95,9.43V7.37h4.82V23.08H95V20.8a5.44,5.44,0,0,1-4.67,2.48A6.59,6.59,0,0,1,85.31,21ZM94,18.1a3.84,3.84,0,0,0,1-2.87,3.8,3.8,0,0,0-1-2.86,3.33,3.33,0,0,0-2.39-1,3.38,3.38,0,0,0-2.4,1,3.86,3.86,0,0,0-1,2.87,3.79,3.79,0,0,0,1,2.86,3.36,3.36,0,0,0,4.79,0Z"/><path class="a" d="M103.75,23.08V2.25h4.81V23.08Z"/><path class="a" d="M74.34,27.93c0-.65-.08-1.44-.07-2h0c-.17.55-.36,1.14-.6,1.79L72.82,30h-.47l-.76-2.25c-.22-.66-.41-1.27-.54-1.83h0c0,.59,0,1.38-.09,2.08l-.13,2h-.58l.33-4.72h.78l.8,2.28c.2.58.36,1.1.48,1.59h0c.12-.48.29-1,.5-1.59L74,25.29h.78L75.05,30h-.59Z"/><path class="a" d="M77.65,28.52,77.16,30h-.63l1.61-4.72h.73L80.48,30h-.65l-.5-1.49Zm1.55-.47-.46-1.36c-.11-.31-.18-.59-.25-.86h0c-.07.28-.15.56-.24.85l-.46,1.37Z"/><path class="a" d="M85.63,29.8a4.31,4.31,0,0,1-1.45.26,2.43,2.43,0,0,1-1.76-.63,2.4,2.4,0,0,1-.66-1.75,2.37,2.37,0,0,1,2.56-2.44,2.85,2.85,0,0,1,1.17.22l-.14.49a2.53,2.53,0,0,0-1-.2,1.76,1.76,0,0,0-1.89,1.9,1.72,1.72,0,0,0,1.82,1.9,2,2,0,0,0,.81-.12V28h-1v-.49h1.55Z"/><path class="a" d="M88.3,28.52,87.81,30h-.63l1.6-4.72h.74L91.13,30h-.65L90,28.52Zm1.55-.47-.46-1.36c-.11-.31-.18-.59-.25-.86h0c-.07.28-.15.56-.24.85l-.46,1.37Z"/><path class="a" d="M92.47,29.65l2.62-3.83v0H92.7v-.51h3.18v.37l-2.6,3.82v0h2.64V30H92.47Z"/><path class="a" d="M98.25,25.29V30h-.61V25.29Z"/><path class="a" d="M100.28,30V25.29H101l1.51,2.39a12.8,12.8,0,0,1,.85,1.53h0c0-.63-.07-1.2-.07-1.94v-2h.58V30h-.62l-1.5-2.4a14.67,14.67,0,0,1-.88-1.57h0c0,.6,0,1.17,0,1.95v2Z"/><path class="a" d="M108.31,27.79h-1.84V29.5h2V30h-2.66V25.29h2.55v.51h-1.94v1.49h1.84Z"/></svg>