<svg xmlns="http://www.w3.org/2000/svg" viewBox="0 0 150 70"><defs><style>.a{fill:#fff;}</style></defs><path class="a" d="M25.63,29.46a1.38,1.38,0,0,1,.38,1,1.34,1.34,0,0,1-.37,1,1.3,1.3,0,0,1-1,.38H22.91V29.07h1.73A1.26,1.26,0,0,1,25.63,29.46Z"/><path class="a" d="M68.72,29.46a1.3,1.3,0,0,0-1-.39H66v2.75h1.73a1.33,1.33,0,0,0,1-.38,1.37,1.37,0,0,0,.36-1A1.42,1.42,0,0,0,68.72,29.46Zm0,0a1.3,1.3,0,0,0-1-.39H66v2.75h1.73a1.33,1.33,0,0,0,1-.38,1.37,1.37,0,0,0,.36-1A1.42,1.42,0,0,0,68.72,29.46Zm0,0a1.3,1.3,0,0,0-1-.39H66v2.75h1.73a1.33,1.33,0,0,0,1-.38,1.37,1.37,0,0,0,.36-1A1.42,1.42,0,0,0,68.72,29.46Zm0,0a1.3,1.3,0,0,0-1-.39H66v2.75h1.73a1.33,1.33,0,0,0,1-.38,1.37,1.37,0,0,0,.36-1A1.42,1.42,0,0,0,68.72,29.46Zm76.93,13.95c-5.06-.18-10.14.2-13.9-1.06-1.27-.05,1.33-2.2.11-3.38l-5.07-.18c-1.21-1.73,1.37-3.32.15-5.06s-6.3-.79-7.53-1.95c-3.77-1.27,2.58-1.59,6.38-1.46-1.23-1.17,2.53.09,2.56-1,.07-2.24.14-4.49-4.87-6.36-1.25-.61.07-2.25.11-3.37C108.4,19,92,18.4,76.71,20.1,64,21.32,48.78,18.34,36.2,19.73c-3.81.43-10.07-2.05-12.68.67l3.79.13c-3.85,1.55-7.58-.28-11.4.15,0,1.12-.05,1.68-1.33,2.2,2.53.09,6.34-.34,8.86.32l-.06,1.68c-2.54.47-6.3-.79-8.85-.32,0,.57,0,1.69-.07,2.25s-1,.51-2,.48l4.52.18c0,.55,0,1.68-.07,2.24s-1.28.51-2.54.47c0,1.12-1.34,2.2-.09,2.81l3.79.13c-5.08.39-7.69,3.1-7.74,4.78,1.28-.52,1.23,1.17,2.51.66C9,40.1,5.12,42.21,10.16,43c44.22,3.3,89.83,2.72,134.13,3.22C146.84,45.71,145.61,44.54,145.65,43.41Zm-119.84-5-2.57-4.45h-.33v4.45H20.13V27h4.51a4.38,4.38,0,0,1,3.09,1,3.26,3.26,0,0,1,1.11,2.48,3.59,3.59,0,0,1-.6,1.94,3.32,3.32,0,0,1-2,1.33l2.8,4.66ZM42.43,29H38.3V31.5H42v2.11H38.3v2.65h4.13v2.12H35.52V26.92h6.91Zm14.35,0H52.12v2.45h3.49v2.12H52.12v4.74H49.34V27h7.44Zm12.11,9.31-2.57-4.45H66v4.45H63.21V27h4.52a4.43,4.43,0,0,1,3.09,1,3.25,3.25,0,0,1,1.1,2.48,3.59,3.59,0,0,1-.6,1.94,3.32,3.32,0,0,1-2,1.33l2.81,4.66ZM85.52,29H81.38V31.5H85v2.11H81.38v2.65h4.14v2.12H78.6V26.92h6.92Zm14.06,8.42a4.51,4.51,0,0,1-3.11,1,4.93,4.93,0,0,1-3.12-.93,3.14,3.14,0,0,1-1.17-2.63h3a1.29,1.29,0,0,0,1.4,1.37,1.32,1.32,0,0,0,.94-.32,1.05,1.05,0,0,0,.35-.81,1.09,1.09,0,0,0-.31-.79,2.17,2.17,0,0,0-.81-.49c-.33-.12-.7-.23-1.11-.34a10.58,10.58,0,0,1-1.21-.38,6.64,6.64,0,0,1-1.1-.55,2.23,2.23,0,0,1-.8-.91,3,3,0,0,1-.31-1.41,3.11,3.11,0,0,1,1.18-2.55,4.69,4.69,0,0,1,3-1,4.86,4.86,0,0,1,3,.84,3.19,3.19,0,0,1,1.19,2.65h-3a1.52,1.52,0,0,0-.4-1,1.14,1.14,0,0,0-.86-.34,1.27,1.27,0,0,0-.85.29,1,1,0,0,0-.33.79,1.13,1.13,0,0,0,.31.84,1.94,1.94,0,0,0,.8.49c.34.11.7.22,1.11.32a10.58,10.58,0,0,1,1.21.38,4.89,4.89,0,0,1,1.1.54,2.51,2.51,0,0,1,.81.92,3.17,3.17,0,0,1,.31,1.43A3.22,3.22,0,0,1,99.58,37.46Zm17.87.92h-2.79V33.64h-4.41v4.74h-2.79V27h2.79v4.56h4.41V27h2.79ZM67.73,29.07H66v2.75h1.73a1.33,1.33,0,0,0,1-.38,1.37,1.37,0,0,0,.36-1,1.42,1.42,0,0,0-.37-1A1.3,1.3,0,0,0,67.73,29.07Zm1,.39a1.3,1.3,0,0,0-1-.39H66v2.75h1.73a1.33,1.33,0,0,0,1-.38,1.37,1.37,0,0,0,.36-1A1.42,1.42,0,0,0,68.72,29.46Zm0,0a1.3,1.3,0,0,0-1-.39H66v2.75h1.73a1.33,1.33,0,0,0,1-.38,1.37,1.37,0,0,0,.36-1A1.42,1.42,0,0,0,68.72,29.46Z"/><path class="a" d="M41.31,50.43,40,53.55l-1.3-3.12H37.45V55h1.1V52.4L39.6,55h.82l1-2.55V55h1.1V50.43Z"/><path class="a" d="M49.81,50.42H48.47L46.9,55h1.17l.25-.76H50l.24.76h1.19ZM48.6,53.35l.54-1.61.53,1.61Z"/><path class="a" d="M57.45,53.26h1.29a1.13,1.13,0,0,1-.34.53,1.06,1.06,0,0,1-.64.19,1.12,1.12,0,0,1-.87-.36,1.31,1.31,0,0,1-.33-.94,1.34,1.34,0,0,1,.33-1,1.14,1.14,0,0,1,.89-.36.87.87,0,0,1,.82.5h1.32a2.15,2.15,0,0,0-.82-1.11,2.38,2.38,0,0,0-1.34-.4,2.23,2.23,0,0,0-1.64.66,2.17,2.17,0,0,0-.68,1.66,2.15,2.15,0,0,0,.68,1.65,2.23,2.23,0,0,0,1.64.66,2.31,2.31,0,0,0,.83-.16,2.14,2.14,0,0,0,.65-.42,2.21,2.21,0,0,0,.68-1.15v-.84H57.45Z"/><path class="a" d="M66.9,50.42H65.56L64,55h1.17l.25-.76H67l.26.76h1.17Zm-1.21,2.93.53-1.61.54,1.61Z"/><path class="a" d="M75.83,50.43h-3.2v.84h1.93l-1.93,2.84V55h3.2v-.84H73.9l1.93-2.84Z"/><path class="a" d="M80.42,50.43V55h1.1V50.43Z"/><path class="a" d="M89.21,50.42v2.85l-1.83-2.85h-1.1V55h1.1V52.09L89.21,55h1.11V50.42Z"/><path class="a" d="M97.81,51.26v-.84H95.07V55h2.74v-.84H96.17v-1h1.45v-.84H96.17v-1Z"/></svg>