<svg xmlns="http://www.w3.org/2000/svg" viewBox="0 0 150 30.6"><defs><style>.a{fill:#fff;}</style></defs><path class="a" d="M14.41,8.09v.15a.81.81,0,0,0-.83.92v4.16c0,2.36-1.27,3.26-2.9,3.5l0-.15c.86-.31,1.67-1.12,1.67-3.29v-3c0-1.89,0-2.15-.78-2.15V8.09Z"/><path class="a" d="M27.18,15.14H24.6V15c.67,0,.35-.82.23-1.1l-.32-.8H22c-.14.4-.67,2,.82,1.9v.15H20.5V15c.32,0,.57,0,1.49-2.33L23.7,8.09h.13c1.85,4.42,2.52,6.13,2.52,6.13.33.8.56.75.83.77Zm-2.73-2.2L23.21,9.82l-1.15,3.12Z"/><path class="a" d="M42.52,15v.15H39.73V15c.42,0,.72-.29.72-1V8.52l-2.53,6.71h-.15L35,9.16v3.47C35,13.21,35,15,36.29,15v.15H33.36V15c1.36,0,1.45-1.79,1.45-2.36V8.92a1.21,1.21,0,0,0-1.12-.68V8.09H36l2.51,5.38,2-5.38h2v.15c-.43,0-.77.24-.77.88V14C41.68,14.7,42.09,15,42.52,15Z"/><path class="a" d="M51.88,8.09v.15a.73.73,0,0,0-.78.84V14c0,.68.36,1,.78,1v.15h-2.8V15c.43,0,.78-.31.78-1V9.08c0-.62-.34-.84-.78-.84V8.09Z"/><path class="a" d="M63.77,13v2.13H58.43V15c.42,0,.56-.44.56-1.12V9.31c0-.62-.12-1.07-.56-1.07V8.09h5.21V10h-.15c-.17-1.7-2.4-1.71-2.81-1.71h-.45v3.27h.5c.14,0,1.43,0,1.51-1h.15v2.2h-.15c-.08-1-1.38-1-1.51-1h-.5V15h.41c.44,0,2.66,0,3-2Z"/><path class="a" d="M77.88,14a1.22,1.22,0,0,1-1.15,1.25s-1,.09-1.4-.5l-.56-.82c-.38,1.14-2.43,2-3.43.6s.31-2.47,1.1-2.93l.5-.3-.53-.8c-.94-1.31-.31-2.56.81-2.75a1.46,1.46,0,0,1,1.45.41c.39.46.83,1.64-.69,2.73l1.26,1.87a1.7,1.7,0,0,1,1.16-1.09.8.8,0,0,1,.67.12.55.55,0,0,1,.06.81.58.58,0,0,1-.82.07.54.54,0,0,1-.19-.39c0-.21-.55,0-.8.6l.8,1.14a1.07,1.07,0,0,0,.83.46c.35,0,.7-.11.78-.48Zm-3.22-.22L73,11.41l-.5.32a1.59,1.59,0,0,0-.17,2.36A1.37,1.37,0,0,0,74.66,13.76ZM73.17,9.67l.72,1.06a1.62,1.62,0,0,0,.64-2.48A1,1,0,0,0,73.46,8,1.12,1.12,0,0,0,73.17,9.67Z"/><path class="a" d="M91.13,15.14H88.56V15c.66,0,.35-.82.23-1.1l-.32-.8H86c-.14.4-.67,2,.82,1.9v.15H84.45V15c.32,0,.57,0,1.49-2.33l1.71-4.57h.13c1.85,4.42,2.52,6.13,2.52,6.13.33.8.56.75.83.77Zm-2.72-2.2L87.16,9.82,86,12.94Z"/><path class="a" d="M105.2,8.09v.15c-1.48,0-1.45,1.91-1.45,2.37v4.53h-.43L99,9.64v3c0,.45,0,2.38,1.34,2.38v.15h-3V15c1.47,0,1.47-1.93,1.47-2.38V9.48L98.45,9c-.64-.8-.93-.71-1.19-.73V8.09h2.15l4.19,5.28V10.61c0-.46,0-2.38-1.34-2.37V8.09Z"/><path class="a" d="M119.32,8.09v.15c-1.48,0-1.45,1.91-1.45,2.37v4.53h-.43l-4.32-5.5v3c0,.45,0,2.38,1.35,2.38v.15h-3V15C113,15,113,13.06,113,12.61V9.48l-.4-.51c-.64-.8-.93-.71-1.19-.73V8.09h2.15l4.19,5.28V10.61c0-.46,0-2.38-1.34-2.37V8.09Z"/><path class="a" d="M128.68,8.09v.15a.73.73,0,0,0-.78.84V14c0,.68.36,1,.78,1v.15h-2.8V15c.43,0,.79-.31.79-1V9.08a.73.73,0,0,0-.79-.84V8.09Z"/><path class="a" d="M140.57,13v2.13h-5.34V15c.42,0,.56-.44.56-1.12V9.31c0-.62-.12-1.07-.56-1.07V8.09h5.21V10h-.15c-.17-1.7-2.4-1.71-2.81-1.71H137v3.27h.5c.14,0,1.43,0,1.51-1h.16v2.2H139c-.08-1-1.38-1-1.51-1H137V15h.41c.44,0,2.66,0,3-2Z"/><path class="a" d="M49.66,25.14V22.22h-.48v-.47h.48v-.16a1.57,1.57,0,0,1,.39-1.18,1.16,1.16,0,0,1,.83-.32,1.41,1.41,0,0,1,.52.1l-.08.47a1,1,0,0,0-.39-.07c-.53,0-.66.46-.66,1v.18h.82v.47h-.82v2.92Z"/><path class="a" d="M55.59,23.42a1.66,1.66,0,0,1-1.69,1.8,1.61,1.61,0,0,1-1.62-1.75A1.66,1.66,0,0,1,54,21.67,1.61,1.61,0,0,1,55.59,23.42Zm-2.69,0c0,.75.43,1.31,1,1.31s1-.56,1-1.32c0-.58-.29-1.3-1-1.3S52.9,22.81,52.9,23.45Z"/><path class="a" d="M60.4,23.42a1.65,1.65,0,0,1-1.68,1.8,1.61,1.61,0,0,1-1.63-1.75,1.66,1.66,0,0,1,1.68-1.8A1.6,1.6,0,0,1,60.4,23.42Zm-2.68,0c0,.75.42,1.31,1,1.31s1-.56,1-1.32c0-.58-.28-1.3-1-1.3S57.72,22.81,57.72,23.45Z"/><path class="a" d="M65.08,20.17v4.1c0,.3,0,.64,0,.87h-.56l0-.59h0a1.25,1.25,0,0,1-1.15.67,1.55,1.55,0,0,1-1.45-1.73,1.62,1.62,0,0,1,1.52-1.82,1.13,1.13,0,0,1,1,.52h0v-2Zm-.62,3a1.14,1.14,0,0,0,0-.26.92.92,0,0,0-.89-.71c-.64,0-1,.56-1,1.31s.34,1.25,1,1.25a.93.93,0,0,0,.91-.74,1.06,1.06,0,0,0,0-.26Z"/><path class="a" d="M67.05,25.14c0-.23,0-.57,0-.87v-4.1h.61V22.3h0a1.25,1.25,0,0,1,1.15-.63,1.52,1.52,0,0,1,1.43,1.73,1.61,1.61,0,0,1-1.52,1.82,1.2,1.2,0,0,1-1.13-.64h0l0,.56Zm.63-1.36a1.6,1.6,0,0,0,0,.23,1,1,0,0,0,.93.72c.64,0,1-.53,1-1.31s-.35-1.26-1-1.26a1,1,0,0,0-.94.76.87.87,0,0,0,0,.25Z"/><path class="a" d="M72,20.17h.62v5H72Z"/><path class="a" d="M77.72,23.42A1.66,1.66,0,0,1,76,25.22a1.61,1.61,0,0,1-1.62-1.75,1.66,1.66,0,0,1,1.68-1.8A1.61,1.61,0,0,1,77.72,23.42Zm-2.69,0c0,.75.43,1.31,1,1.31s1-.56,1-1.32c0-.58-.29-1.3-1-1.3S75,22.81,75,23.45Z"/><path class="a" d="M82.39,21.75c0,.25,0,.52,0,.93v2a2,2,0,0,1-.48,1.55,1.79,1.79,0,0,1-1.23.4,2.11,2.11,0,0,1-1.13-.28l.15-.47a2,2,0,0,0,1,.27c.63,0,1.09-.33,1.09-1.18v-.38h0a1.23,1.23,0,0,1-1.08.57,1.52,1.52,0,0,1-1.44-1.66,1.63,1.63,0,0,1,1.52-1.8,1.13,1.13,0,0,1,1.06.59h0l0-.51Zm-.64,1.34a.8.8,0,0,0,0-.28.88.88,0,0,0-.86-.65c-.59,0-1,.49-1,1.28s.34,1.22,1,1.22A.89.89,0,0,0,81.7,24a1,1,0,0,0,0-.33Z"/><path class="a" d="M87.28,21.75c0,.25,0,.52,0,.93v2a2,2,0,0,1-.48,1.55,1.8,1.8,0,0,1-1.24.4,2.09,2.09,0,0,1-1.12-.28l.15-.47a1.88,1.88,0,0,0,1,.27,1,1,0,0,0,1.1-1.18v-.38h0a1.22,1.22,0,0,1-1.08.57,1.52,1.52,0,0,1-1.44-1.66,1.63,1.63,0,0,1,1.53-1.8,1.13,1.13,0,0,1,1.06.59h0l0-.51Zm-.64,1.34a1.14,1.14,0,0,0,0-.28.9.9,0,0,0-.87-.65c-.59,0-1,.49-1,1.28s.34,1.22,1,1.22a.9.9,0,0,0,.85-.63,1,1,0,0,0,0-.33Z"/><path class="a" d="M89.59,23.56a1.08,1.08,0,0,0,1.16,1.17,2.22,2.22,0,0,0,.94-.17l.1.44a2.74,2.74,0,0,1-1.13.21A1.57,1.57,0,0,1,89,23.5a1.65,1.65,0,0,1,1.59-1.83,1.44,1.44,0,0,1,1.4,1.6c0,.13,0,.22,0,.29Zm1.8-.44a.87.87,0,0,0-.85-1,1,1,0,0,0-1,1Z"/><path class="a" d="M93.72,22.81c0-.4,0-.74,0-1.06h.54l0,.67h0a1,1,0,0,1,.94-.75l.18,0v.59a.71.71,0,0,0-.21,0,.86.86,0,0,0-.83.8,2.19,2.19,0,0,0,0,.28v1.81h-.61Z"/></svg>